<svg viewBox="0 0 158 164" fill="none" xmlns="http://www.w3.org/2000/svg">
<path d="M28.8836 73.4346H131.987C134.004 73.4346 135.635 74.9536 135.635 76.8215V150.963C135.635 154.165 134.265 157.235 131.827 159.499C129.389 161.763 126.081 163.035 122.633 163.035H38.2379C34.7894 163.035 31.4821 161.763 29.0437 159.499C26.6053 157.235 25.2354 154.165 25.2354 150.963V76.8257C25.2354 74.9536 26.8716 73.4388 28.8836 73.4388V73.4346Z" fill="#7D48E8"/>
<path d="M101.486 37.4445C88.5307 37.8834 83.6713 51.6662 82.0576 64.2467H104.183C117.678 58.7793 117.678 36.9005 101.486 37.4445Z" fill="#FFE15A"/>
<path d="M101.486 50.0252C94.0806 47.2961 89.9663 58.9577 89.0703 64.2422H95.0086C101.486 60.416 107.424 52.2103 101.486 50.0252Z" fill="#FFB113"/>
<path d="M60.549 37.4535C73.5089 37.8923 78.3637 51.6751 79.9866 64.2556H57.8519C44.3662 58.7836 44.3662 36.9049 60.549 37.4535Z" fill="#FFE15A"/>
<path d="M60.5538 50.034C67.9594 47.3048 72.0737 58.9665 72.9697 64.251H67.0314C60.5538 60.4248 54.6155 52.2237 60.5538 50.034Z" fill="#FFB113"/>
<path d="M17.0021 74.5099C14.7712 68.1693 19.4066 61.5088 26.0397 61.5088H134.83C141.468 61.5088 146.098 68.1693 143.868 74.5007L139.356 87.3006C138.866 88.7087 137.951 89.9301 136.737 90.7963C135.524 91.6626 134.072 92.1311 132.581 92.1372H28.2888C26.7974 92.1307 25.3447 91.6616 24.1312 90.7945C22.9177 89.9273 22.0033 88.705 21.514 87.2961L17.0021 74.5099Z" fill="#D8C8F8"/>
<path d="M66.999 72C66.999 69.7909 68.7899 68 70.999 68H88.999C91.2082 68 92.999 69.7909 92.999 72V163H66.999V72Z" fill="#FFE15A"/>
<path d="M43.5799 8.70242C44.0471 6.61926 47.0158 6.61926 47.483 8.70241L51.1625 25.1103C51.3163 25.7961 51.8187 26.3508 52.4858 26.5715L63.4408 30.1958C65.2699 30.8009 65.2699 33.3882 63.4408 33.9934L52.4675 37.6238C51.8103 37.8412 51.3122 38.3831 51.1508 39.0564L47.4764 54.386C46.9862 56.431 44.0768 56.431 43.5866 54.386L39.9121 39.0564C39.7507 38.3831 39.2527 37.8412 38.5954 37.6238L27.6221 33.9934C25.793 33.3882 25.793 30.8009 27.6221 30.1958L38.5771 26.5715C39.2443 26.3508 39.7467 25.7961 39.9004 25.1103L43.5799 8.70242Z" fill="#7D48E8"/>
<path d="M13.649 25.7858C13.8825 24.7442 15.3669 24.7442 15.6005 25.7858L18.0281 36.6113C18.105 36.9542 18.3562 37.2315 18.6898 37.3419L25.9443 39.7419C26.8588 40.0445 26.8588 41.3382 25.9443 41.6407L18.6807 44.0438C18.352 44.1525 18.103 44.4235 18.0223 44.7601L15.5972 54.8775C15.3521 55.9001 13.8974 55.9001 13.6523 54.8775L11.2272 44.7601C11.1465 44.4235 10.8974 44.1525 10.5688 44.0438L3.3052 41.6407C2.39066 41.3382 2.39066 40.0445 3.3052 39.7419L10.5597 37.3419C10.8932 37.2315 11.1444 36.9542 11.2213 36.6113L13.649 25.7858Z" fill="#D8C8F8"/>
<path d="M142.399 25.7858C142.633 24.7442 144.117 24.7442 144.351 25.7858L146.778 36.6113C146.855 36.9542 147.106 37.2315 147.44 37.3419L154.694 39.7419C155.609 40.0445 155.609 41.3382 154.694 41.6407L147.431 44.0438C147.102 44.1525 146.853 44.4235 146.772 44.7601L144.347 54.8775C144.102 55.9001 142.647 55.9001 142.402 54.8775L139.977 44.7601C139.896 44.4235 139.647 44.1525 139.319 44.0438L132.055 41.6407C131.141 41.3382 131.141 40.0445 132.055 39.7419L139.31 37.3419C139.643 37.2315 139.894 36.9542 139.971 36.6113L142.399 25.7858Z" fill="#7D48E8"/>
</svg>
