<svg xmlns="http://www.w3.org/2000/svg" width="12" height="12" viewBox="0 0 12 12" fill="none">
  <path d="M4.45312 2.05312C4.45312 2.13597 4.52028 2.20312 4.60312 2.20312H9.60938V8.70938C9.60938 8.79222 9.67653 8.85938 9.75937 8.85938H10.3969C10.4797 8.85938 10.5469 8.79222 10.5469 8.70938V1.64062C10.5469 1.43352 10.379 1.26562 10.1719 1.26562H4.60312C4.52028 1.26562 4.45312 1.33278 4.45312 1.41563V2.05312ZM2.39062 4.17188V9.79688H7.64062V4.17188H2.39062ZM1.82812 10.7344C1.62102 10.7344 1.45312 10.5665 1.45312 10.3594V3.60938C1.45312 3.40227 1.62102 3.23438 1.82812 3.23438H8.20312C8.41023 3.23438 8.57812 3.40227 8.57812 3.60938V10.3594C8.57812 10.5665 8.41023 10.7344 8.20312 10.7344H1.82812Z" fill="#9F9F9F"/>
</svg>