<svg xmlns="http://www.w3.org/2000/svg" width="24" height="24" viewBox="0 0 24 24" fill="none">
  <path d="M20.3483 4.40153C20.3417 4.38861 20.3306 4.37848 20.3171 4.37296C18.7611 3.65903 17.119 3.14993 15.432 2.85843C15.4167 2.85558 15.4008 2.85763 15.3867 2.8643C15.3726 2.87097 15.361 2.88191 15.3535 2.89557C15.1299 3.3014 14.9269 3.71826 14.7453 4.14455C12.9268 3.8685 11.0771 3.8685 9.25854 4.14455C9.07575 3.71718 8.86952 3.30022 8.64078 2.89557C8.63293 2.88221 8.62125 2.87152 8.60724 2.86489C8.59323 2.85827 8.57755 2.85601 8.56225 2.85843C6.87505 3.14932 5.23286 3.65845 3.67701 4.373C3.66369 4.37865 3.65245 4.38829 3.64484 4.4006C0.533445 9.04706 -0.318885 13.5793 0.0992394 18.0554C0.100416 18.0663 0.103786 18.077 0.10915 18.0866C0.114514 18.0963 0.121763 18.1047 0.130464 18.1115C1.9422 19.453 3.96865 20.4769 6.12334 21.1396C6.13852 21.1442 6.15472 21.144 6.16977 21.139C6.18483 21.1341 6.19801 21.1247 6.20755 21.112C6.67033 20.4824 7.08038 19.8156 7.43355 19.1185C7.4384 19.1089 7.44117 19.0984 7.44168 19.0877C7.44219 19.077 7.44042 19.0663 7.43649 19.0563C7.43256 19.0463 7.42656 19.0373 7.41888 19.0298C7.41121 19.0223 7.40203 19.0165 7.39196 19.0129C6.74533 18.7654 6.11931 18.4672 5.51979 18.1209C5.5089 18.1145 5.49975 18.1055 5.49316 18.0947C5.48656 18.084 5.48272 18.0717 5.48198 18.0591C5.48123 18.0465 5.4836 18.0339 5.48888 18.0224C5.49416 18.0109 5.50218 18.0009 5.51224 17.9933C5.63803 17.8991 5.76391 17.801 5.88404 17.702C5.89471 17.6932 5.90762 17.6876 5.92132 17.6857C5.93502 17.6839 5.94897 17.6859 5.96159 17.6915C9.88931 19.4841 14.1416 19.4841 18.0229 17.6915C18.0355 17.6855 18.0496 17.6832 18.0635 17.6849C18.0774 17.6866 18.0905 17.6922 18.1014 17.7011C18.2215 17.8001 18.3474 17.8991 18.4741 17.9933C18.4842 18.0009 18.4923 18.0108 18.4977 18.0222C18.503 18.0337 18.5055 18.0462 18.5049 18.0589C18.5042 18.0715 18.5005 18.0837 18.4939 18.0945C18.4874 18.1054 18.4783 18.1144 18.4675 18.1209C17.8693 18.4701 17.2428 18.7682 16.5944 19.0119C16.5844 19.0157 16.5752 19.0217 16.5676 19.0293C16.56 19.0369 16.554 19.046 16.5502 19.0561C16.5463 19.0661 16.5447 19.0769 16.5452 19.0876C16.5458 19.0984 16.5487 19.1089 16.5536 19.1185C16.9127 19.8117 17.3222 20.4776 17.7787 21.1109C17.788 21.1239 17.8011 21.1337 17.8162 21.1388C17.8313 21.1439 17.8476 21.1442 17.8629 21.1395C20.0214 20.479 22.0514 19.455 23.8654 18.1115C23.8743 18.1051 23.8816 18.0968 23.887 18.0873C23.8924 18.0778 23.8957 18.0672 23.8967 18.0563C24.3972 12.8815 23.0586 8.38641 20.3483 4.40153ZM8.02012 15.3299C6.83759 15.3299 5.86322 14.2447 5.86322 12.912C5.86322 11.5792 6.81869 10.494 8.02012 10.494C9.23095 10.494 10.1959 11.5887 10.177 12.9119C10.177 14.2447 9.22148 15.3299 8.02012 15.3299ZM15.9948 15.3299C14.8124 15.3299 13.838 14.2447 13.838 12.912C13.838 11.5792 14.7935 10.494 15.9948 10.494C17.2057 10.494 18.1707 11.5887 18.1518 12.9119C18.1518 14.2447 17.2057 15.3299 15.9948 15.3299Z" fill="#9F9F9F"/>
</svg>