<svg viewBox="0 0 72 72" fill="none" xmlns="http://www.w3.org/2000/svg">
<path d="M72 36C72 55.8823 55.8823 72 36 72C16.1177 72 0 55.8823 0 36C0 16.1177 16.1177 0 36 0C55.8823 0 72 16.1177 72 36ZM5.4 36C5.4 52.8999 19.1001 66.6 36 66.6C52.8999 66.6 66.6 52.8999 66.6 36C66.6 19.1001 52.8999 5.4 36 5.4C19.1001 5.4 5.4 19.1001 5.4 36Z" fill="#EFEFEF"/>
<path d="M2.7 36C1.20883 36 -0.0105371 37.2105 0.101186 38.6975C0.564771 44.8676 2.61268 50.8306 6.06709 56.0005C10.0228 61.9207 15.6453 66.5349 22.2234 69.2597C28.8015 71.9844 36.0399 72.6973 43.0232 71.3083C50.0066 69.9192 56.4212 66.4905 61.4558 61.4558C66.4905 56.4212 69.9192 50.0066 71.3083 43.0233C72.6973 36.0399 71.9844 28.8015 69.2597 22.2234C66.5349 15.6453 61.9207 10.0228 56.0005 6.0671C50.8306 2.61268 44.8676 0.564773 38.6975 0.101187C37.2106 -0.0105369 36 1.20883 36 2.7C36 4.19117 37.2112 5.38763 38.6966 5.51903C43.7973 5.97025 48.7189 7.69618 53.0005 10.557C58.0326 13.9194 61.9547 18.6985 64.2707 24.2899C66.5868 29.8813 67.1927 36.0339 66.012 41.9698C64.8313 47.9056 61.917 53.358 57.6375 57.6375C53.358 61.917 47.9056 64.8313 41.9698 66.012C36.0339 67.1927 29.8813 66.5868 24.2899 64.2707C18.6985 61.9547 13.9194 58.0326 10.557 53.0004C7.69618 48.7189 5.97025 43.7973 5.51903 38.6966C5.38763 37.2112 4.19117 36 2.7 36Z" fill="#7D48E8"/>
</svg>
