<svg viewBox="0 0 80 80" fill="none" xmlns="http://www.w3.org/2000/svg">
<path d="M80 40C80 62.0914 62.0914 80 40 80C17.9086 80 0 62.0914 0 40C0 17.9086 17.9086 0 40 0C62.0914 0 80 17.9086 80 40ZM2 40C2 60.9868 19.0132 78 40 78C60.9868 78 78 60.9868 78 40C78 19.0132 60.9868 2 40 2C19.0132 2 2 19.0132 2 40Z" fill="#EFEFEF"/>
<path d="M1 40C0.447715 40 -0.00130599 39.5522 0.0124853 39.0001C0.268428 28.7538 4.45028 18.9812 11.7157 11.7157C18.9812 4.45028 28.7538 0.268427 39.0001 0.0124852C39.5522 -0.00130604 40 0.447715 40 1C40 1.55228 39.5521 1.99863 39 2.01314C29.2843 2.26863 20.0203 6.23959 13.1299 13.1299C6.2396 20.0203 2.26863 29.2843 2.01314 39C1.99863 39.5521 1.55228 40 1 40Z" fill="#7D48E8"/>
</svg>
