<?xml version="1.0" encoding="utf-8"?>
<!-- Generator: Adobe Illustrator 28.0.0, SVG Export Plug-In . SVG Version: 6.00 Build 0)  -->
<svg version="1.1" id="ecoearn" xmlns="http://www.w3.org/2000/svg" xmlns:xlink="http://www.w3.org/1999/xlink" x="0px" y="0px"
	 viewBox="0 0 160 32" style="enable-background:new 0 0 160 32;" xml:space="preserve">
<style type="text/css">
	.st0{fill:#8124E2;}
	.st1{fill:#A963D6;}
</style>
<g id="Group">
	<g id="ecoearn_00000094594799931018246240000013329850713187534246_">
		<path d="M51.7,18.8h3.6c-1.3,2.6-3.8,4.3-6.9,4.3c-4.5,0-7.9-3.6-7.9-8s3.5-8,7.9-8s7.8,3.6,7.8,8c0,0.4,0,0.8-0.1,1.2H43.8
			c0.5,2.4,2.3,4.1,4.6,4.1C49.7,20.3,50.8,19.7,51.7,18.8z M43.8,13.7h9c-0.5-2.2-2.2-3.9-4.5-3.9C46.1,9.9,44.3,11.5,43.8,13.7z"
			/>
		<path d="M66.3,9.8c-2.7,0-4.8,2.4-4.8,5.2c0,2.9,2.1,5.2,4.8,5.2c1.6,0,2.9-0.9,3.7-2.2h3.4c-1.1,2.9-3.7,4.9-7,4.9
			c-4.4,0-8-3.6-8-8s3.6-8,8-8c3.3,0,5.9,2,7,4.9h-3.5C69.1,10.6,67.8,9.8,66.3,9.8z"/>
		<path d="M82.7,22.9c-4.4,0-7.9-3.6-7.9-7.9c0-4.4,3.6-7.9,7.9-7.9s7.9,3.5,7.9,7.9S87.1,22.9,82.7,22.9z M82.6,20.2
			c2.6,0,4.8-2.3,4.8-5.2c0-2.8-2.1-5.2-4.8-5.2c-2.7,0-4.8,2.4-4.8,5.2C77.9,17.9,80,20.2,82.6,20.2z"/>
		<path d="M104.4,18.8h3.6c-1.3,2.6-3.8,4.3-6.9,4.3c-4.5,0-7.9-3.6-7.9-8s3.5-8,7.9-8s7.8,3.6,7.8,8c0,0.4,0,0.8-0.1,1.2H96.5
			c0.5,2.4,2.3,4.1,4.6,4.1C102.4,20.3,103.6,19.7,104.4,18.8z M96.6,13.7h9c-0.5-2.2-2.2-3.9-4.5-3.9C98.9,9.9,97.1,11.5,96.6,13.7
			z"/>
		<path d="M123.7,22.7v-1.9c0,0-1.5,2.1-4.9,2.1c-4.4,0-8-3.6-8-7.9c0-4.5,3.6-8,8-8c3.4,0,4.9,2.1,4.9,2.1V7.3h3v15.5L123.7,22.7
			L123.7,22.7z M118.8,20.3c2.7,0,4.8-2.4,4.8-5.2c0-2.9-2.1-5.3-4.8-5.3s-4.8,2.4-4.8,5.3S116.1,20.3,118.8,20.3z"/>
		<path d="M139.1,7.1v3.2c-0.5-0.1-0.9-0.2-1.3-0.2c-2.2,0-4.3,1.1-4.3,4.1v8.5h-3.1V7.3h3.1v1.4c0.8-1.1,2.2-1.7,4.3-1.7
			C138.3,7,138.7,7,139.1,7.1z"/>
		<path d="M157.3,13.9v8.8h-3.1v-8.8c0-2.9-2.1-3.8-3.4-3.8c-2.2,0-4.3,1.1-4.3,4.1v8.5h-3.1V7.3h3.1v1.4c0.8-1.1,2.2-1.7,4.3-1.7
			C153.7,7,157.3,8.5,157.3,13.9z"/>
	</g>
	<path id="_x36_" d="M18.5,16.8c-7,0-12.6-2.2-12.6-5s5.6-5,12.6-5V3.6c-3.8,0-7.4,0.6-10.1,1.7c-5,2-5.7,4.9-5.7,6.5
		s0.7,4.5,5.7,6.5c2.7,1.1,6.3,1.7,10.1,1.7V16.8z"/>
	<path id="_x35_" d="M28.6,8.5c-2.7-1.1-6.3-1.7-10.1-1.7V10c7,0,12.6,2.2,12.6,5s-5.6,5-12.6,5v3.2c3.8,0,7.4-0.6,10.1-1.7
		c5-2,5.7-4.9,5.7-6.5S33.5,10.5,28.6,8.5z"/>
	<g id="_x34_">
		<path d="M2.9,16.6c-0.2,0.6-0.2,1.2-0.2,1.6c0,1.6,0.7,4.5,5.7,6.5c2.7,1.1,6.3,1.7,10.1,1.7v-3.2c-3.8,0-7.4-0.6-10.1-1.7
			C4.8,20.1,3.4,18.2,2.9,16.6z"/>
	</g>
	<g id="_x33_">
		<path d="M34,19.8c0.2,0.6,0.2,1.2,0.2,1.6c0,1.6-0.7,4.5-5.7,6.5c-2.7,1.1-6.3,1.7-10.1,1.7v-3.2c3.8,0,7.4-0.6,10.1-1.7
			C32.2,23.3,33.5,21.4,34,19.8z"/>
	</g>
	<path id="_x32_" class="st0" d="M18.5,8C12.2,8,7,9.7,7,11.8s5.1,3.9,11.5,3.9V8z"/>
	<path id="_x31_" class="st1" d="M18.5,11.1c6.3,0,11.5,1.7,11.5,3.9c0,2.1-5.1,3.9-11.5,3.9V11.1z"/>
</g>
</svg>
