<svg width="184" height="32" viewBox="0 0 184 32" fill="none" xmlns="http://www.w3.org/2000/svg">
<g clip-path="url(#clip0_506_602)">
<path d="M19.0002 16.2742C10.8011 16.2742 4.15035 13.6283 4.15035 10.3617C4.15035 7.09516 10.7945 4.45577 19.0002 4.45577V0.699219C14.5707 0.699219 10.3438 1.41133 7.10986 2.69836C1.26924 5.02415 0.393799 8.49978 0.393799 10.3617C0.393799 12.2237 1.26924 15.7058 7.10986 18.0316C10.3438 19.3186 14.5707 20.0308 19.0002 20.0308V16.2742Z" fill="black"/>
<path d="M30.8901 6.44836C27.6562 5.16133 23.4292 4.44922 18.9998 4.44922V8.20577C27.1988 8.20577 33.8496 10.8517 33.8496 14.1183C33.8496 17.3848 27.1988 20.0307 18.9998 20.0307V23.7873C23.4292 23.7873 27.6562 23.0752 30.8901 21.7882C36.7307 19.4624 37.6061 15.9867 37.6061 14.1183C37.6061 12.2498 36.7307 8.77415 30.8901 6.44836Z" fill="black"/>
<path d="M0.68779 15.9932C0.465663 16.7053 0.393799 17.3455 0.393799 17.8682C0.393799 19.7366 1.26924 23.2123 7.10986 25.5381C10.3438 26.8251 14.5707 27.5372 19.0002 27.5372V23.7872C14.5707 23.7872 10.3438 23.0751 7.10986 21.7881C2.89599 20.109 1.26924 17.829 0.68779 15.9932Z" fill="black"/>
<path d="M37.3121 19.7563C37.5343 20.4685 37.6061 21.1087 37.6061 21.6314C37.6061 23.4998 36.7307 26.9755 30.8901 29.3013C27.6562 30.5883 23.4292 31.3004 18.9998 31.3004V27.5504C23.4292 27.5504 27.6562 26.8383 30.8901 25.5512C35.1039 23.8722 36.7307 21.5987 37.3121 19.7563Z" fill="black"/>
<path d="M19 5.80176C11.5522 5.80176 5.50903 7.84663 5.50903 10.3619C5.50903 12.8771 11.5456 14.922 19 14.922V5.80176Z" fill="#8124E2"/>
<path d="M18.9998 9.55811C26.4475 9.55811 32.4907 11.603 32.4907 14.1182C32.4907 16.6335 26.4541 18.6784 18.9998 18.6784V9.55811Z" fill="#A963D6"/>
</g>
<path fill-rule="evenodd" clip-rule="evenodd" d="M161.51 6.61149V10.4089C160.959 10.2646 160.414 10.2252 159.975 10.2252C157.345 10.2252 154.899 11.4648 154.899 15.0851V25.1327H151.279V6.86728H154.899V8.54626C155.811 7.3067 157.457 6.5 159.975 6.5C160.487 6.5 160.998 6.53935 161.51 6.61149ZM59.1886 20.4236H63.4973C62.002 23.4536 58.9656 25.4998 55.352 25.4998C50.0923 25.4998 46 21.2237 46 16.0359C46 10.8481 50.0923 6.53918 55.352 6.53918C60.6117 6.53918 64.5598 10.8153 64.5598 16.0359C64.5598 16.5081 64.5204 16.9869 64.4483 17.4263H49.8366C50.3874 20.2006 52.5779 22.2468 55.2799 22.2468C56.8538 22.2468 58.2048 21.591 59.1886 20.417V20.4236ZM49.9087 14.4684H60.5396C59.9559 11.8385 57.9097 9.9037 55.2799 9.9037C52.65 9.9037 50.5317 11.8385 49.9087 14.4684ZM76.4685 9.86435C73.2878 9.86435 70.7694 12.6386 70.7694 16.0031C70.7694 19.3676 73.2878 22.1747 76.4685 22.1747C78.3704 22.1747 79.8985 21.1188 80.8166 19.5447H84.7975C83.5186 22.9748 80.4494 25.3884 76.5079 25.3884C71.3203 25.3884 67.0444 21.1516 67.0444 15.9638C67.0444 10.776 71.3203 6.53918 76.5079 6.53918C80.3772 6.53918 83.4465 8.91337 84.7647 12.2779H80.6723C79.7607 10.7825 78.2589 9.86435 76.4751 9.86435H76.4685ZM86.4497 15.9639C86.4497 21.1517 90.647 25.3557 95.8345 25.3557C101.022 25.3557 105.187 21.1517 105.187 15.9639C105.187 10.7761 101.016 6.61145 95.8345 6.61145C90.6535 6.61145 86.4497 10.7761 86.4497 15.9639ZM101.389 16.036C101.389 19.4333 98.8644 22.1748 95.7624 22.1748C92.621 22.1748 90.1354 19.4006 90.1354 16.036C90.1354 12.6715 92.6538 9.89727 95.7624 9.89727C98.871 9.89727 101.389 12.6387 101.389 16.036ZM120.483 20.4236H124.792C123.296 23.4536 120.26 25.4998 116.646 25.4998C111.387 25.4998 107.294 21.2237 107.294 16.0359C107.294 10.8481 111.387 6.53918 116.646 6.53918C121.906 6.53918 125.854 10.8153 125.854 16.0359C125.854 16.5081 125.815 16.9869 125.743 17.4263H111.131C111.682 20.2006 113.872 22.2468 116.574 22.2468C118.148 22.2468 119.499 21.591 120.483 20.417V20.4236ZM111.203 14.4684H121.834C121.25 11.8385 119.204 9.9037 116.574 9.9037C113.944 9.9037 111.826 11.8385 111.203 14.4684ZM143.279 22.9422V25.1328H146.82V6.86731H143.279V9.16935C143.279 9.16935 141.455 6.65088 137.435 6.65088C132.208 6.65088 127.972 10.927 127.972 16.0755C127.972 21.2239 132.208 25.4607 137.435 25.4607C141.449 25.4607 143.279 22.9422 143.279 22.9422ZM143.206 16.1476C143.206 19.5121 140.688 22.2864 137.507 22.2864C134.327 22.2864 131.808 19.5449 131.808 16.1476C131.808 12.7503 134.327 9.93669 137.507 9.93669C140.688 9.93669 143.206 12.7831 143.206 16.1476ZM180.993 25.1327V14.7244L181 14.7178C181 8.25112 176.757 6.5 173.399 6.5C170.88 6.5 169.234 7.3067 168.323 8.54626V6.86728H164.703V25.1393H168.323V15.0917C168.323 11.4714 170.769 10.2318 173.399 10.2318C174.861 10.2318 177.38 11.3271 177.38 14.7244V25.1327H180.993Z" fill="black"/>
<defs>
<clipPath id="clip0_506_602">
<rect width="38" height="32" fill="white"/>
</clipPath>
</defs>
</svg>
