<svg  viewBox="0 0 41 40" fill="none" xmlns="http://www.w3.org/2000/svg">
<path d="M0.5 6C0.5 2.68629 3.18629 0 6.5 0H34.5C37.8137 0 40.5 2.68629 40.5 6V34C40.5 37.3137 37.8137 40 34.5 40H6.5C3.18629 40 0.5 37.3137 0.5 34V6Z" fill="url(#paint0_linear_7575_3399)"/>
<path fill-rule="evenodd" clip-rule="evenodd" d="M21.5292 11.504C23.1591 11.504 24.4804 10.1827 24.4804 8.5528C24.4804 6.92288 23.1591 5.60156 21.5292 5.60156C19.8993 5.60156 18.578 6.92288 18.578 8.5528C18.578 10.1827 19.8993 11.504 21.5292 11.504ZM34.8605 20.001C34.8605 23.317 32.1723 26.0052 28.8563 26.0052C25.5402 26.0052 22.8521 23.317 22.8521 20.001C22.8521 16.6849 25.5402 13.9967 28.8563 13.9967C32.1723 13.9967 34.8605 16.6849 34.8605 20.001ZM24.4804 31.4499C24.4804 33.0799 23.1591 34.4012 21.5292 34.4012C19.8993 34.4012 18.578 33.0799 18.578 31.4499C18.578 29.82 19.8993 28.4987 21.5292 28.4987C23.1591 28.4987 24.4804 29.82 24.4804 31.4499ZM6.41702 11.7069C5.552 13.9967 6.7732 16.5917 9.06295 17.4567C10.5895 18.0164 12.2177 17.7111 13.388 16.7444C14.4566 15.9811 15.8304 15.7267 17.1534 16.2355C18.0184 16.5408 18.6799 17.1005 19.1379 17.8129L19.1888 17.9147C19.3923 18.22 19.6976 18.5253 20.1047 18.627C21.0206 18.9832 22.0891 18.4744 22.3944 17.5585C22.7506 16.6426 22.2418 15.574 21.3259 15.2687C20.9188 15.1161 20.5117 15.1161 20.1047 15.2687C19.2905 15.5232 18.3746 15.5232 17.5096 15.2179C16.2375 14.7599 15.3725 13.7422 15.0163 12.5719L14.9654 12.4701C14.9654 12.4193 14.9654 12.3684 14.9145 12.3684V12.2666C14.5584 10.8419 13.5916 9.62068 12.116 9.11185C9.82621 8.19595 7.23115 9.36626 6.41702 11.7069ZM9.06336 22.545C6.7736 23.4101 5.5524 26.0051 6.41742 28.2949C7.28244 30.6355 9.82661 31.8058 12.1164 30.8899C13.592 30.3811 14.5588 29.1599 14.9149 27.7351V27.6334C14.9658 27.6334 14.9658 27.5825 14.9658 27.5316L15.0167 27.4298C15.3729 26.2595 16.2379 25.2419 17.51 24.7839C18.375 24.4786 19.2909 24.4786 20.1051 24.733C20.5121 24.8857 20.9192 24.8857 21.3263 24.733C22.2422 24.4277 22.751 23.3592 22.3948 22.4433C22.0895 21.5274 21.021 21.0185 20.1051 21.3747C19.698 21.4765 19.3927 21.7818 19.1892 22.0871L19.1383 22.1888C18.6803 22.9012 18.0188 23.4609 17.1538 23.7662C15.8308 24.2751 14.457 24.0207 13.3884 23.2574C12.2181 22.2906 10.5899 21.9853 9.06336 22.545Z" fill="white"/>
<defs>
<linearGradient id="paint0_linear_7575_3399" x1="39.2255" y1="0.776264" x2="0.500001" y2="36.9841" gradientUnits="userSpaceOnUse">
<stop stop-color="#673ECA"/>
<stop offset="1" stop-color="#502EA2"/>
</linearGradient>
</defs>
</svg>
