<svg width="14" height="14" viewBox="0 0 14 14" fill="none" xmlns="http://www.w3.org/2000/svg">
<g id="Group 2570">
<path id="Union" d="M3.85 7.175C3.85 7.7549 3.3799 8.225 2.8 8.225C2.2201 8.225 1.75 7.7549 1.75 7.175C1.75 6.5951 2.2201 6.125 2.8 6.125C3.3799 6.125 3.85 6.5951 3.85 7.175ZM8.13763 7.175C8.13763 7.7549 7.66753 8.225 7.08763 8.225C6.50773 8.225 6.03763 7.7549 6.03763 7.175C6.03763 6.5951 6.50773 6.125 7.08763 6.125C7.66753 6.125 8.13763 6.5951 8.13763 7.175ZM11.375 8.225C11.9549 8.225 12.425 7.7549 12.425 7.175C12.425 6.5951 11.9549 6.125 11.375 6.125C10.7951 6.125 10.325 6.5951 10.325 7.175C10.325 7.7549 10.7951 8.225 11.375 8.225Z" fill="#1A1A1A"/>
</g>
</svg>
