<svg xmlns="http://www.w3.org/2000/svg" viewBox="0 0 16 16" fill="none">
  <path fill-rule="evenodd" clip-rule="evenodd" d="M7.33453 2.91025C5.19379 3.8493 3.84745 6.14598 4.63124 8.4283C5.10522 9.80849 6.06034 10.792 7.47679 11.2947C9.95369 12.1739 12.5393 10.2407 12.2493 7.72794C12.1262 6.65996 11.5839 5.84675 10.4824 5.51025C9.66301 5.25993 8.87887 5.37688 8.23904 5.97226C7.69599 6.47701 7.49012 7.09871 7.70762 7.8213C7.82765 8.21867 8.11593 8.46591 8.50817 8.58389C8.85254 8.68717 9.11893 8.53773 9.32412 8.25184C9.28274 8.18276 9.24649 8.10718 9.19622 8.04221C8.92846 7.69613 9.14561 7.19275 9.37712 6.98312C9.69174 6.69826 10.2013 6.67227 10.5361 6.90823C11.0791 7.29021 11.326 8.30621 11.0309 8.94365C10.5371 10.0099 9.26735 10.6306 8.10225 10.3286C6.26279 9.85192 5.35588 8.03571 5.94954 6.28003C6.73847 3.9471 9.39012 2.92666 11.6499 4.04559C13.4767 4.94976 14.1548 6.52864 14.082 8.40812C13.9626 11.5026 10.8401 13.7983 7.70899 13.2015C4.67228 12.6229 2.41732 9.71513 2.57907 6.96534C2.63858 5.95003 2.86462 4.99935 3.38407 4.12698C4.73554 1.85834 6.84072 0.790707 9.4739 0.618011C10.1671 0.572529 10.8661 0.611172 11.5264 0.611514C11.4902 0.595441 11.4074 0.554747 11.3212 0.522601C10.0354 0.0411058 8.70652 -0.11244 7.34479 0.0818001C6.50046 0.185759 5.72111 0.413854 5.01254 0.740095C4.99955 0.742147 4.98416 0.746592 4.96535 0.754458C4.64663 0.89022 4.59329 0.578342 4.48009 0.483958C4.36998 0.39231 4.38434 0.506187 4.38434 0.506187C4.48043 0.963403 4.23969 1.14772 4.2072 1.17029C4.00646 1.29443 3.81393 1.42848 3.6279 1.56938C3.62243 1.57177 3.61832 1.57177 3.61251 1.5745C3.17308 1.7749 2.99046 1.43635 2.78836 1.33342C2.57463 1.22467 2.65533 1.40318 2.65533 1.40318C2.92002 1.92913 2.69158 2.37916 2.64884 2.45508C2.46144 2.65719 2.286 2.86955 2.12186 3.09012C2.10476 3.10107 2.088 3.11132 2.06851 3.12877C1.63694 3.51895 1.30113 3.21015 1.03439 3.15202C0.740294 3.08841 0.906833 3.28094 0.906833 3.28094C1.45091 3.83801 1.2789 4.50794 1.2789 4.50794L1.28027 4.50862C0.581277 6.01911 0.33027 7.76726 0.620604 9.52226C1.57505 15.291 8.67061 18.0155 13.3218 14.2993C14.8322 13.0924 15.8801 10.7677 15.9905 8.84447C16.0692 7.47864 15.6468 6.23899 14.8682 5.11664C13.2161 2.73516 9.91402 1.77866 7.33453 2.91025Z" fill="#5D42FF"/>
</svg>