<svg width="32" height="32" viewBox="0 0 32 32" fill="none" xmlns="http://www.w3.org/2000/svg">
<path d="M5.68961 10.3999H26.3103C26.7136 10.3999 27.04 10.7037 27.04 11.0773V25.9057C27.04 26.546 26.766 27.16 26.2783 27.6128C25.7906 28.0655 25.1292 28.3199 24.4395 28.3199H7.56047C6.87077 28.3199 6.20932 28.0655 5.72163 27.6128C5.23394 27.16 4.95996 26.546 4.95996 25.9057V11.0781C4.95996 10.7037 5.2872 10.4008 5.68961 10.4008V10.3999Z" fill="#7D48E8"/>
<path d="M20.2102 3.20194C17.6191 3.28972 16.6472 6.04627 16.3245 8.56237H20.7496C23.4485 7.46889 23.4485 3.09315 20.2102 3.20194Z" fill="#FFE15A"/>
<path d="M20.2101 5.71807C18.729 5.17225 17.9061 7.50458 17.7269 8.56148H18.9146C20.2101 7.79623 21.3978 6.1551 20.2101 5.71807Z" fill="#FFB113"/>
<path d="M12.0228 3.20393C14.6147 3.2917 15.5857 6.04826 15.9103 8.56435H11.4833C8.78621 7.46996 8.78621 3.09422 12.0228 3.20393Z" fill="#FFE15A"/>
<path d="M12.0237 5.72003C13.5048 5.1742 14.3277 7.50653 14.5069 8.56344H13.3192C12.0237 7.79818 10.836 6.15797 12.0237 5.72003Z" fill="#FFB113"/>
<path d="M3.31338 10.6149C2.86721 9.34675 3.79429 8.01465 5.12091 8.01465H26.8789C28.2065 8.01465 29.1326 9.34675 28.6865 10.613L27.7841 13.173C27.6861 13.4546 27.5031 13.6989 27.2604 13.8722C27.0178 14.0454 26.7273 14.1391 26.4291 14.1403H5.57073C5.27244 14.139 4.98191 14.0452 4.73921 13.8718C4.49651 13.6984 4.31362 13.4539 4.21577 13.1721L3.31338 10.6149Z" fill="#D8C8F8"/>
<path d="M13.9199 8.16002C13.9199 7.80656 14.2065 7.52002 14.5599 7.52002H17.4399C17.7934 7.52002 18.0799 7.80656 18.0799 8.16002V28.32H13.9199V8.16002Z" fill="#FFE15A"/>
<path d="M6.90306 4.36284C6.9778 4.02954 7.4528 4.02954 7.52755 4.36284L8.11627 6.98811C8.14087 7.09783 8.22125 7.18658 8.328 7.2219L10.0808 7.80179C10.3734 7.89861 10.3735 8.31258 10.0808 8.4094L8.32508 8.99026C8.21991 9.02505 8.14022 9.11176 8.1144 9.21948L7.52649 11.6722C7.44806 11.9994 6.98255 11.9994 6.90412 11.6722L6.31621 9.21948C6.29039 9.11176 6.21069 9.02505 6.10553 8.99026L4.34981 8.4094C4.05716 8.31258 4.05715 7.89861 4.34981 7.80179L6.1026 7.2219C6.20935 7.18658 6.28973 7.09783 6.31434 6.98811L6.90306 4.36284Z" fill="#7D48E8"/>
<path d="M2.11415 0.696194C2.15152 0.529541 2.38902 0.529541 2.42639 0.696193L2.81482 2.42828C2.82712 2.48314 2.86731 2.52751 2.92068 2.54517L4.0814 2.92918C4.22772 2.97759 4.22772 3.18457 4.0814 3.23298L2.91922 3.61748C2.86664 3.63487 2.82679 3.67823 2.81388 3.73208L2.42586 5.35088C2.38665 5.51448 2.15389 5.51448 2.11468 5.35088L1.72666 3.73208C1.71375 3.67822 1.6739 3.63487 1.62132 3.61748L0.459145 3.23298C0.312818 3.18457 0.312818 2.97759 0.459145 2.92918L1.61986 2.54517C1.67323 2.52751 1.71342 2.48314 1.72572 2.42828L2.11415 0.696194Z" fill="#D8C8F8"/>
<path d="M29.1141 0.696194C29.1515 0.529541 29.389 0.529541 29.4264 0.696193L29.8148 2.42828C29.8271 2.48314 29.8673 2.52751 29.9207 2.54517L31.0814 2.92918C31.2277 2.97759 31.2277 3.18457 31.0814 3.23298L29.9192 3.61748C29.8666 3.63487 29.8268 3.67823 29.8139 3.73208L29.4259 5.35088C29.3866 5.51448 29.1539 5.51448 29.1147 5.35088L28.7267 3.73208C28.7137 3.67822 28.6739 3.63487 28.6213 3.61748L27.4591 3.23298C27.3128 3.18457 27.3128 2.97759 27.4591 2.92918L28.6199 2.54517C28.6732 2.52751 28.7134 2.48314 28.7257 2.42828L29.1141 0.696194Z" fill="#7D48E8"/>
</svg>
