<svg xmlns="http://www.w3.org/2000/svg" width="75" height="42" viewBox="0 0 75 42" fill="none">
  <path d="M17.3844 1.06024C30.032 8.87594 34.5354 20.5995 35.2061 25.4843V40.4261L16.5221 41.2881C15.3723 27.4957 5.69495 16.3851 1 12.5539C8.58857 11.6344 15.0849 12.937 17.3844 13.7033C18.3043 9.56556 17.7677 3.55054 17.3844 1.06024Z" fill="#FFE15A" stroke="black" stroke-width="0.456618"/>
  <path d="M27.1569 35.254C28.0767 36.4033 30.6062 38.9894 31.756 40.1388L74.0107 37.5527C71.7111 19.1628 63.0877 10.5426 60.7881 9.68054C58.4886 8.81852 54.7518 5.65776 46.9907 14.5654C39.2297 23.4729 36.6427 24.335 35.7803 25.197C34.918 26.059 30.3188 28.3578 28.3067 29.5071C26.2945 30.6565 26.0071 33.8172 27.1569 35.254Z" fill="#FFE15A" stroke="black" stroke-width="0.456618"/>
  <path d="M29.4578 35.2539C30.3776 36.4033 32.7155 38.7978 33.7695 39.8514H44.4049C42.7761 36.7864 38.3686 30.5415 33.7695 30.0817C28.0206 29.5071 28.308 33.8172 29.4578 35.2539Z" fill="#FFB113" stroke="black" stroke-width="0.456618"/>
</svg>