<svg xmlns="http://www.w3.org/2000/svg" width="56" height="117" viewBox="0 0 56 117" fill="none">
  <path d="M36.6273 4.31686C30.4185 -4.6482 10.4698 4.41264 1.27148 10.0637L31.1659 42.246C39.6743 43.3954 42.1846 38.8937 42.3763 36.4992C43.756 23.3964 39.1185 9.5848 36.6273 4.31686Z" fill="#FFE15A" stroke="black" stroke-width="0.456618"/>
  <path d="M33.4654 30.1776C29.3262 29.2581 22.5424 29.7944 19.668 30.1776L23.1173 36.7864C28.3872 38.8936 39.1568 42.016 40.0766 37.6484C40.9965 33.2808 36.0524 30.848 33.4654 30.1776Z" fill="#FFB113" stroke="black" stroke-width="0.456618"/>
  <path d="M54.7368 102.875C41.3993 100.346 30.3997 89.37 26.5671 84.1979C23.1176 79.3705 22.0637 72.0337 21.9679 68.9688C21.2972 74.3325 21.6805 88.1632 28.5792 100.576C35.4779 112.99 44.4845 116.476 48.1255 116.667C45.596 114.599 45.1552 110.25 45.2511 108.335C50.5401 107.645 53.7786 104.408 54.7368 102.875Z" fill="#FFB113" stroke="black" stroke-width="0.456618"/>
  <path d="M21.6797 29.8902C21.6851 29.8961 21.6905 29.902 21.6959 29.9079L34.6148 43.97C36.9143 51.096 33.6566 60.9231 31.7403 64.9459C27.3711 72.072 26.4705 80.5582 26.5663 83.9105C20.8173 77.0143 21.6797 63.9881 22.8295 58.3371C27.4178 41.5957 23.9954 32.4236 21.6959 29.9079L21.6797 29.8902Z" fill="#FFE15A" stroke="black" stroke-width="0.456618"/>
</svg>