<svg xmlns="http://www.w3.org/2000/svg" width="76" height="77" viewBox="0 0 76 77" fill="none">
  <g clip-path="url(#clip0_33403_44633)">
    <path d="M26.7621 12.0416C28.3504 12.31 29.9169 13.1433 31.4755 14.4065C33.0742 15.7022 34.6485 17.4372 36.2113 19.4395C38.4378 22.2918 40.6191 25.6564 42.8041 29.0265C43.6913 30.3951 44.5792 31.7646 45.4709 33.101C47.2073 35.7034 49.0843 38.1802 50.8704 40.5276C50.9293 40.605 50.9881 40.6823 51.0468 40.7594C52.7702 43.0242 54.399 45.1646 55.7371 47.1917C57.1216 49.2893 58.1812 51.2458 58.7107 53.0707C59.2294 54.8587 59.2351 56.5046 58.5519 58.0334C58.5384 58.0418 58.5231 58.0512 58.5059 58.0617C58.487 58.0732 58.4658 58.086 58.4425 58.1C58.3376 58.163 58.192 58.2486 58.0103 58.3541C57.647 58.5651 57.1428 58.8538 56.5381 59.1974C55.329 59.8843 53.7205 60.7889 52.0399 61.7252C48.6739 63.6003 45.0331 65.5942 43.7233 66.2262C39.8968 68.0727 35.1828 67.8852 30.3305 65.6102C25.4777 63.3349 20.5021 58.9762 16.1922 52.5167C7.55942 39.5784 7.9979 27.6651 14.065 21.8549C15.0959 20.8676 18.2852 18.4021 21.2387 16.1683C22.7108 15.0549 24.1176 14.0041 25.1564 13.2316C25.6758 12.8453 26.1032 12.5287 26.4006 12.3086L26.7447 12.0544L26.7621 12.0416Z" fill="#EBC500" stroke="black" stroke-width="0.614562"/>
    <path d="M59.4383 23.8427C63.7397 30.2893 65.7184 37.3889 65.453 43.6476C65.1877 49.9066 62.682 55.301 58.0402 58.3981C53.3984 61.4953 47.4554 61.738 41.5741 59.5803C35.6931 57.4226 29.8972 52.87 25.5958 46.4233C21.2944 39.9766 19.3157 32.8771 19.5811 26.6184C19.8464 20.3594 22.3521 14.965 26.9939 11.8679C31.6357 8.77072 37.5787 8.52795 43.46 10.6857C49.341 12.8434 55.1369 17.396 59.4383 23.8427Z" fill="#FFED3B" stroke="black" stroke-width="0.614562"/>
    <g filter="url(#filter0_i_33403_44633)">
      <ellipse cx="43.5058" cy="34.5033" rx="15.3241" ry="22.1546" transform="rotate(-33.7123 43.5058 34.5033)" fill="#FCE502"/>
    </g>
    <path d="M55.9973 26.1686C59.3626 31.2123 60.9873 36.7111 60.9069 41.5153C60.8265 46.321 59.0439 50.3999 55.6315 52.6766C52.2192 54.9534 47.7686 55.0336 43.3002 53.263C38.8333 51.4929 34.3796 47.8816 31.0143 42.838C27.649 37.7943 26.0243 32.2955 26.1047 27.4913C26.1851 22.6856 27.9677 18.6067 31.3801 16.3299C34.7924 14.0532 39.243 13.973 43.7114 15.7436C48.1783 17.5137 52.632 21.125 55.9973 26.1686Z" stroke="black" stroke-width="0.614562"/>
    <path d="M33.5325 38.0621C33.7087 38.8423 34.4281 39.5408 35.3806 39.638C35.8594 39.6932 35.8252 39.6991 36.2608 39.7416C37.0243 39.8162 36.8726 39.3577 36.9131 38.4614C37.015 36.2569 38.9401 33.5828 39.4552 33.3077C40.8109 32.5832 38.9658 32.9533 38.3077 30.0304C38.1394 29.2798 38.1029 28.3577 38.2745 27.7612C38.4086 27.2939 38.5078 26.859 37.5763 26.7776C35.7229 26.6138 34.5238 27.8344 34.9272 29.6303C35.1811 30.7571 35.9988 31.8195 37.0338 32.5108C36.8662 32.5291 36.6964 32.5495 36.5091 32.5774C34.185 32.987 32.9896 35.6487 33.5325 38.0621ZM38.8389 40.2424C39.0141 40.9897 39.5115 41.771 40.8108 41.9241C43.7378 42.2677 51.9506 43.2514 53.3662 43.4083C54.9507 43.5852 54.8295 42.8294 54.6685 42.1142C53.894 38.6694 50.7868 35.2968 47.3481 34.026C48.6068 33.4516 49.0098 32.1558 48.6505 30.5582C48.1257 28.2262 45.7257 26.0955 43.2988 25.8083C40.8726 25.5221 39.3258 27.1855 39.8498 29.5173C40.2097 31.1159 41.3026 32.5883 42.8957 33.4999C39.8536 34.0043 38.0361 36.824 38.8389 40.2424Z" fill="#040809"/>
  </g>
  <defs>
    <filter id="filter0_i_33403_44633" x="25.7944" y="14.2015" width="35.4224" height="40.6036" filterUnits="userSpaceOnUse" color-interpolation-filters="sRGB">
      <feFlood flood-opacity="0" result="BackgroundImageFix"/>
      <feBlend mode="normal" in="SourceGraphic" in2="BackgroundImageFix" result="shape"/>
      <feColorMatrix in="SourceAlpha" type="matrix" values="0 0 0 0 0 0 0 0 0 0 0 0 0 0 0 0 0 0 127 0" result="hardAlpha"/>
      <feOffset dx="-0.774348" dy="2.56887"/>
      <feComposite in2="hardAlpha" operator="arithmetic" k2="-1" k3="1"/>
      <feColorMatrix type="matrix" values="0 0 0 0 0 0 0 0 0 0 0 0 0 0 0 0 0 0 1 0"/>
      <feBlend mode="normal" in2="shape" result="effect1_innerShadow_33403_44633"/>
    </filter>
    <clipPath id="clip0_33403_44633">
      <rect width="75.0558" height="76.1665" fill="white" transform="translate(0.332031 0.151367)"/>
    </clipPath>
  </defs>
</svg>